<?xml version="1.0" standalone="no"?>
<!DOCTYPE svg PUBLIC "-//W3C//DTD SVG 20010904//EN"
 "http://www.w3.org/TR/2001/REC-SVG-20010904/DTD/svg10.dtd">
<svg version="1.0" xmlns="http://www.w3.org/2000/svg"
 width="512.000000pt" height="512.000000pt" viewBox="0 0 512.000000 512.000000"
 preserveAspectRatio="xMidYMid meet">

<g transform="translate(0.000000,512.000000) scale(0.100000,-0.100000)"
fill="#000000" stroke="none">
<path d="M1650 4368 c-18 -13 -41 -34 -51 -48 -10 -14 -76 -253 -152 -550
-118 -461 -132 -526 -118 -532 9 -5 247 -67 530 -139 541 -138 557 -140 611
-101 93 69 93 195 0 263 -14 11 -140 48 -280 84 -140 36 -264 69 -274 73 -16
7 -2 17 75 54 221 107 458 151 684 128 128 -13 167 -21 292 -62 370 -119 680
-426 803 -796 50 -149 64 -242 64 -407 1 -229 -38 -396 -137 -589 -178 -348
-496 -588 -890 -673 -115 -25 -380 -25 -496 0 -126 27 -224 63 -341 123 -345
178 -578 489 -667 884 -12 54 -17 129 -18 266 -2 221 -8 242 -85 282 -56 29
-117 24 -168 -14 -50 -39 -63 -80 -69 -223 -30 -681 383 -1308 1027 -1556 357
-138 783 -138 1140 0 802 309 1216 1186 945 2000 -169 511 -596 910 -1112
1039 -156 39 -248 50 -413 49 -251 -1 -483 -54 -692 -159 -50 -25 -88 -39 -88
-32 0 6 27 118 61 247 65 251 68 290 31 340 -33 46 -81 71 -132 71 -32 0 -57
-7 -80 -22z"/>
</g>
</svg>
